<svg width="134" height="80" viewBox="0 0 134 80" fill="none" xmlns="http://www.w3.org/2000/svg">
<path d="M38.5733 44.7781V60.7047H0V0H16.4142V44.7781H38.5733Z" fill="#FC1055"/>
<path d="M71.2136 60.5206L71.1505 56.784C69.6985 58.0091 67.8677 58.9892 65.6581 59.7243C63.4485 60.4594 61.2388 60.8269 58.903 60.8269C55.3045 60.8269 51.9585 59.8468 48.8651 57.9479C45.7716 55.9877 43.3726 53.4149 41.5418 50.1071C39.711 46.7993 38.8271 43.1852 38.8271 39.2648C38.8271 35.2832 39.7741 31.6691 41.6049 28.3613C43.4358 25.0534 46.0241 22.4807 49.307 20.5818C52.5898 18.6828 56.1883 17.764 60.1025 17.764C62.249 17.764 64.2692 18.1315 66.1631 18.8053C68.0571 19.4791 69.5722 20.4592 70.7086 21.6844V18.254H84.345L86.2389 60.5206H71.2136ZM65.8475 46.4318C67.1732 45.5742 68.1833 44.4716 68.9409 43.0627C69.6985 41.6538 70.0773 40.1837 70.0773 38.591C70.0773 36.3858 69.3828 34.6094 67.9308 33.1392C66.4788 31.6691 64.648 30.934 62.5015 30.934C60.1025 30.934 58.0191 31.7303 56.1883 33.3842C54.3575 35.0382 53.4737 36.9983 53.4737 39.2648C53.4737 40.6737 53.8525 42.0213 54.6732 43.3077C55.4939 44.6553 56.504 45.6967 57.7666 46.493C59.0292 47.2893 60.355 47.7181 61.7439 47.7181C63.1328 47.7181 64.5217 47.2893 65.8475 46.4318Z" fill="#FC1055"/>
<path d="M133.331 17.0901L121.841 58.7442C119.821 65.5436 116.854 70.8116 112.94 74.487C109.026 78.1623 104.48 80 99.3033 80C97.0937 80 94.7578 79.6937 92.2957 79.0199C89.8335 78.4073 87.4977 77.5498 85.2881 76.4472L89.0128 61.562C90.0229 62.4195 91.6012 63.1546 93.6846 63.7672C95.7679 64.3797 97.4725 64.7473 98.8614 64.7473C101.323 64.7473 103.217 63.7672 104.543 61.7457L86.2351 18.3153L102.334 17.9477L110.73 41.5313L117.043 17.8252L133.331 17.0901Z" fill="#FC1055"/>
</svg>
