<?xml version="1.0" encoding="utf-8"?>
<!-- Generator: Adobe Illustrator 19.0.0, SVG Export Plug-In . SVG Version: 6.00 Build 0)  -->
<svg version="1.1" id="Слой_1" xmlns="http://www.w3.org/2000/svg" xmlns:xlink="http://www.w3.org/1999/xlink" x="0px" y="0px"
	 viewBox="-357 130 244 301" style="enable-background:new -357 130 244 301;" xml:space="preserve">
<style type="text/css">
	.st0{opacity:0.12;}
</style>
<g>
	<path class="st0" d="M-115.9,384.4c0.2-11-0.5-21.9-5.6-31.8c-6.1-11.8-15.4-20.5-26.6-26.7c-6.8-3.8-14.2-6.5-21.2-9.9
		c-8.1-4-16.1-8.3-24.1-12.5c-2.6-1.4-5-3.1-7.4-4.8c-2.6-1.8-3.9-4.3-3.7-7.8c0.2-4.1-0.1-8.2,0.1-12.3c0.1-1.6,0.9-3.3,1.8-4.7
		c3.3-5.1,7.2-9.9,10.1-15.2c5.3-9.9,6.4-20.9,5.9-32.1c-0.2-3.6,0.7-6.4,2.5-9.4c6.6-11.4,8.8-23.6,5.2-36.6
		c-3.6-13-11.7-22.6-21.9-30.4c-3.8-2.9-8.4-4.1-13.2-3c-3.3,0.8-6.4,2-9.8,3.1c-0.1-1.2-0.3-2.2-0.3-3.2c-0.3-4.1-1.9-5.7-5.8-5.5
		c-2,0.1-4,0.5-5.9,1.1c-12.8,3.6-22.8,11.6-31.8,21.5c-4.3,4.7-4.3,4.8-7.4-0.8c-2.4-4.3-6.4-4.6-8.7-0.3
		c-3.3,6.3-6.8,12.7-9.1,19.5c-5.5,16.4-3.7,31.6,8,44.8c0.6,0.6,0.9,1.6,1.1,2.5c2,15.4,6.9,29.5,16,42c0.8,1.1,1.4,2.6,1.5,3.9
		c0.2,5.2,0,10.5,0.1,15.7c0.1,2.8-1,4.9-3,6.5c-1.4,1.1-2.7,2.3-4.2,3.1c-11.1,5.7-22.1,11.7-33.4,16.9c-8.6,4-17.1,8-24.7,13.8
		c-12.5,9.7-21.1,22-22.8,38.5c-0.7,7.1-0.3,14.3-0.3,21.4c0,6.3,0,12.7,0,19.2c0,3.7,2.9,6.9,6.5,7.1c0,0,0,0,0.1,0
		c1.9,0.1,2.4-0.8,2.4-2.7c0-12.9,0.1-25.8,0-38.7c-0.1-11.6,3.9-21.3,11.3-29.6c7.2-8.2,16.1-13.8,25.9-18.2
		c4.3-1.9,8.8-3.6,13.1-5.7c6.6-3.3,13.2-6.8,19.7-10.4c2.1-1.1,3.3-0.8,4.9,0.8c10.2,10.8,20.6,21.6,30.9,32.4
		c3.7,3.8,5.6,3.8,9.3-0.1c10.3-10.8,20.7-21.5,31-32.3c1.7-1.8,2.9-1.7,4.9-0.7c9.8,5,19.7,9.6,29.4,14.6c7.2,3.7,14.6,7.2,21.2,12
		c10.6,7.7,18,18.2,18.9,32.2c0.7,10.9,0.4,21.8,0.4,32.7c0,2.3,0,4.5,0,6.8c0,3.3,2.4,6.2,5.5,6.6l0,0c2.8,0.4,3.4-0.7,3.4-3.5
		C-116,404.6-116,394.5-115.9,384.4z M-281.8,215.9c-7.3-8.8-6.5-28,2.3-41.7c5.4,4.8,11.1,4.4,17.1-2.3c6-6.8,12.6-12.7,20.5-16.9
		c0.7-0.4,1.4-0.8,2.2-1.1c1.9-0.7,4-2.2,5.6-1.8c1.3,0.3,2,3,2.9,4.7c2.6,4.8,6.8,5.9,11.1,2.9c7-4.9,11.2-4.8,17.6,1.1
		c10.3,9.3,17.2,20.3,16.1,35.2c-0.2,2.5-0.7,4.9-1.8,7.4c-0.2-0.8-0.4-1.6-0.5-2.4c-1.7-11.6-12-18.3-22.9-15
		c-14.6,4.5-29.2,4.4-43.8,0c-10.3-3.1-19.7,2.4-22.4,13.1C-279.1,204.5-280.4,210-281.8,215.9z M-274.8,229.7
		c-0.2-1.8,0-3.8,0.4-5.6c1.6-7.6,3.4-15.1,5.2-22.7c1.3-5.6,5.5-8.3,10.8-6.6c13.5,4.4,27.2,4.1,41,2.3c2.6-0.3,5.1-1.3,7.6-2
		c7.2-2.1,11.8,1.2,12.5,9c0.7,8,1.5,16.1,2.3,24.1c0.1,11.8-2.3,22.8-8.8,32.6c-5.6,8.5-12.8,15.2-22.7,17.8
		c-14.5,3.8-26.2-1.2-35-13.5C-269.1,254.6-273.1,242.6-274.8,229.7z M-235.4,336.6c-9.4-9.7-19.1-19.9-29.3-30.5
		c8.6-5.1,7.5-14.3,7.4-23.7c14.7,8.9,29.2,8.7,44.3,0.4c-0.4,9.2-1.4,18.1,6.9,23.3C-216.1,316.5-225.9,326.7-235.4,336.6z"/>
	<path class="st0" d="M-185.9,367.3C-185.9,367.3-185.9,367.3-185.9,367.3c-8.8,0-17.6-0.1-26.3,0c-6.2,0-5.4-1.1-5.6,5.9
		c-0.1,2.6,0.7,3.5,3.2,3.4c8.3-0.1,16.5-0.1,24.8,0.1c7.1,0.1,8.2,0.2,7.6-5.8C-182.3,368.9-183.9,367.3-185.9,367.3z"/>
	<path class="st0" d="M-301.6,397.2c0-7.7-0.4-8.1-7.8-6.7c-0.3,0.1-0.5,0.3-0.9,0.5v24.8c0,1.3,1,2.3,2.2,2.3c1.4,0,2.8,0,4.1,0
		c1.9,0.1,2.5-0.8,2.4-2.6C-301.6,409.4-301.6,403.3-301.6,397.2z"/>
	<path class="st0" d="M-166.1,390.3c-2.3,0-2.9,0.9-2.9,3.2c0.1,7.4,0,14.9,0,22.3c0,1.2,0.9,2.2,2.1,2.2c1.3,0,3.1,0,4.4,0
		c1.2,0,2.2-1.1,2.2-2.3c0-6.6,0-12.8,0-19.1C-160.2,390.2-160.1,390.3-166.1,390.3z"/>
	<path class="st0" d="M-262.2,216.8c0.1,0,7.2-2.3,13.3-2.3h6.7c2.1,0,3.8-1.8,3.8-4s-1.7-4-3.8-4h-6.7c-7.2,0-15.2,2.6-15.5,2.7
		c-2,0.7-3.2,2.9-2.5,5c0.5,1.7,2,2.8,3.7,2.8C-262.9,217-262.6,216.9-262.2,216.8z"/>
	<path class="st0" d="M-225.7,210.5l6.7,1c5.9,0.9,12.7,4.1,12.8,4.2c0.5,0.3,1.1,0.4,1.6,0.4c1.4,0,2.8-0.8,3.5-2.3
		c0.9-2,0.1-4.4-1.8-5.3c-0.3-0.2-7.9-3.8-15-4.9l-6.7-1c-2.1-0.3-4,1.2-4.3,3.4C-229.2,208.2-227.8,210.2-225.7,210.5z"/>
	<path class="st0" d="M-248.1,227.6c1.4,0,2.8,0,3.9-0.2c2.1-0.2,3.6-2.2,3.4-4.4c-0.2-2.2-2.1-3.8-4.2-3.6
		c-3.6,0.4-12.2-0.2-15.1-0.5c-2.1-0.2-4,1.4-4.2,3.6c-0.2,2.2,1.4,4.1,3.5,4.3C-260.4,227-253.5,227.6-248.1,227.6z"/>
	<path class="st0" d="M-209,219c-3.6,0.4-12.2-0.2-15.1-0.5c-2.1-0.2-4,1.4-4.2,3.6c-0.2,2.2,1.4,4.1,3.5,4.3
		c0.4,0,7.3,0.7,12.7,0.7c1.4,0,2.8,0,3.9-0.2c2.1-0.2,3.6-2.2,3.4-4.4C-205,220.4-206.9,218.8-209,219z"/>
</g>
</svg>
