<svg width="244" height="301" viewBox="0 0 244 301" fill="none" xmlns="http://www.w3.org/2000/svg">
<path d="M231.068 157.125C229.157 172.415 227.382 187.567 225.608 202.583C223.833 216.644 221.239 230.432 215.643 243.537C214.277 246.676 212.776 249.816 210.728 252.41C205.268 259.372 197.896 260.055 190.934 254.594C186.429 251.045 183.972 246.267 182.197 241.079C179.604 233.844 177.146 226.473 174.416 218.965C165.953 230.568 166.499 246.813 172.642 254.048C176.054 258.007 179.74 261.693 183.289 265.515C189.296 271.931 195.575 278.21 201.309 284.899C203.766 287.766 205.404 291.452 207.179 294.865C208.407 297.185 207.861 299.506 205.268 300.598C203.084 301.554 201.309 300.598 200.217 298.551C193.528 286.401 183.836 276.982 173.597 267.836C161.448 257.051 157.216 243.537 161.721 227.701C163.222 222.241 161.994 218.419 158.991 213.914C154.486 207.225 150.936 199.717 146.978 192.618C145.886 190.707 145.066 188.523 143.838 185.793C141.381 187.158 139.06 188.113 137.149 189.478C129.914 194.256 123.361 199.853 117.764 206.542C112.577 212.822 110.802 212.549 106.161 205.723C102.885 200.809 99.4719 196.031 95.9226 191.253C94.2845 189.069 92.2368 187.294 90.4622 185.383C80.0873 194.529 77.2206 209.546 83.9097 220.739C87.3224 226.609 91.4177 232.07 94.967 237.94C104.113 253.092 110.939 269.064 111.758 287.084C111.894 290.223 111.621 293.363 111.348 296.639C111.075 299.233 109.847 301.008 106.98 300.598C104.523 300.325 103.84 298.277 103.704 296.093C103.294 290.223 103.158 284.353 102.339 278.483C100.837 268.109 100.564 268.382 90.1891 267.017C81.4525 265.924 72.5793 264.969 64.1156 262.648C48.1438 258.28 34.2197 250.089 25.0735 235.892C21.7973 230.841 19.6131 224.971 17.702 219.238C15.9273 213.504 13.6066 208.18 9.23829 203.949C7.60016 202.31 6.09854 200.672 4.86994 198.761C-2.22862 188.523 -1.54606 177.465 6.78109 168.183C7.60016 167.364 8.28271 166.545 8.96526 165.862C9.10177 165.18 9.23829 164.633 9.10178 164.36C4.59692 156.579 6.64458 149.208 11.6955 142.792C18.794 133.646 26.5751 125.045 34.0832 116.172C39.1341 110.302 44.185 104.432 49.2359 98.5623C52.1027 95.1495 53.4678 91.1907 53.3313 86.6859C53.0582 79.1778 56.0615 73.0348 61.2489 67.7109C63.0235 65.7997 64.5251 63.3425 65.6172 61.0218C69.4395 52.6947 72.9888 44.3675 76.5381 36.0404C81.4525 24.983 88.824 16.1098 98.7893 9.14777C117.901 -4.09377 142.473 -3.00169 159.81 12.697C173.734 25.256 182.197 41.3643 186.702 59.3837C191.617 79.0413 195.985 98.6988 199.671 118.629C201.036 126.001 204.312 130.915 211.138 133.1C218.373 135.557 225.881 137.331 233.389 139.379C234.754 139.789 236.119 139.516 237.484 139.925C240.897 140.881 243.354 144.157 243.491 147.433C243.491 150.982 241.853 153.576 238.576 154.941C235.983 155.624 233.525 156.306 231.068 157.125ZM190.661 114.944C190.525 113.851 190.388 112.759 190.115 111.667C186.839 96.7877 183.562 81.908 180.15 67.1648C179.331 63.3425 178.375 59.6567 177.01 55.9709C171.959 42.4564 165.816 29.6244 155.032 19.5226C140.971 6.41755 120.768 4.36989 104.796 15.0177C97.0147 20.2051 90.0526 26.3481 86.0938 35.3578C82.5445 43.412 78.7222 51.4661 74.8999 59.5202C77.7667 62.5235 78.4492 65.5267 76.9476 69.076C76.5381 70.0316 76.8111 71.2601 76.6746 72.4887C75.8555 85.8668 72.1697 98.4258 65.2077 109.893C61.7949 115.49 58.2456 121.087 55.2424 126.957C48.6899 139.652 48.0073 152.894 52.7852 166.408C53.4678 165.453 53.7408 164.36 53.7408 163.268C54.4233 147.57 59.7473 133.646 69.1665 120.95C77.3571 109.893 80.7699 97.0607 83.2271 83.6826C85.0017 73.1713 88.005 62.933 91.2812 52.8312C93.4654 45.8692 97.8337 40.1357 104.113 35.6308C113.669 28.9418 125.955 28.6688 135.238 35.7674C140.425 39.7262 144.52 44.6406 146.978 50.5105C150.39 58.7012 153.394 67.0283 156.26 75.3555C159.4 84.7747 162.267 94.3305 165.134 104.023C168.273 114.398 174.28 122.725 181.651 130.369C191.071 140.062 202.401 146.614 215.916 148.525C220.147 149.071 224.379 149.481 228.475 147.706C227.519 147.024 226.427 146.751 225.471 146.614C198.306 140.471 179.877 124.226 169.502 98.5623C164.041 84.9112 161.584 70.5776 159.673 56.1075C159.4 54.0598 159.4 52.0121 159.537 49.9645C159.537 47.6438 160.629 45.8692 162.949 45.5961C165.816 45.1866 167.045 47.2343 167.454 49.6915C167.727 51.4661 167.864 53.2407 168.137 55.1519C169.365 70.9871 173.461 86.0033 179.331 100.61C181.651 106.07 184.655 111.394 190.661 114.944ZM16.7464 171.323C7.46365 177.739 5.82552 185.656 11.6955 194.256C12.6511 195.758 13.8797 197.123 15.2448 198.352C20.2957 202.993 23.2989 208.726 24.8005 215.279C28.0768 230.022 36.95 240.533 49.6455 247.905C62.887 255.55 77.6302 258.553 92.7828 258.962C93.6019 258.962 94.421 258.416 96.0591 257.87C93.3289 252.683 90.8717 247.905 88.1415 243.264C83.9096 236.302 79.4048 229.476 75.3095 222.378C70.8046 214.46 69.7125 206.133 73.5348 197.533C75.5825 192.891 74.8999 188.386 72.8523 183.199C63.2965 183.472 53.8773 183.335 44.7311 180.742C35.1753 178.421 25.4831 176.51 16.7464 171.323ZM91.9638 85.4573C96.3321 85.8668 100.154 86.5493 104.113 86.6859C106.57 86.8224 108.755 87.0954 109.301 89.8256C109.847 92.5558 108.072 94.0574 105.615 94.74C102.066 95.8321 98.6528 96.1051 94.967 94.8765C90.5987 93.5114 88.551 95.286 88.551 99.9274C88.551 101.019 88.6875 102.248 89.0971 103.204C93.7384 114.398 100.154 124.363 110.666 130.642C116.672 134.192 123.771 137.058 130.869 135.284C141.927 132.417 151.346 126.684 157.489 116.445C158.991 113.988 158.991 112.077 158.035 109.483C155.851 103.34 153.94 96.9242 151.755 90.6447C151.209 89.2796 150.527 87.9145 149.708 86.0033C147.387 86.8224 145.613 87.6414 143.701 88.051C140.152 88.7335 136.603 89.4161 132.917 89.8256C130.596 90.0986 128.822 88.7335 128.549 86.4128C128.139 84.0922 129.504 82.5905 131.825 81.908C133.19 81.4985 134.555 81.4985 135.784 81.0889C139.606 79.9968 143.428 78.6317 146.978 77.5396C146.159 70.1681 145.339 69.4855 139.47 70.0316C137.285 70.3046 134.965 70.9871 132.78 71.5332C130.05 72.2157 127.32 73.1713 125.682 69.7585C124.59 67.3013 126.228 65.2537 130.46 63.6156C132.644 62.7965 134.828 62.387 137.012 61.7044C138.514 61.2949 139.879 60.8853 142.063 60.3393C139.333 52.8312 135.92 46.5517 129.777 42.3199C122.815 37.542 115.171 38.088 108.209 42.8659C99.8814 48.4629 97.9703 57.3361 95.24 66.4823C98.5163 67.5744 101.383 68.2569 103.84 69.622C105.069 70.3046 106.297 72.3522 106.297 73.8539C106.297 76.1745 104.25 77.2666 101.929 77.1301C100.154 76.9936 98.3798 76.4476 96.6051 76.038C93.8749 75.3555 92.1003 76.5841 91.6908 79.3143C91.8273 80.8159 91.9638 82.454 91.9638 85.4573ZM196.531 162.586C199.944 167.5 203.22 172.005 206.36 176.646C208.953 180.469 211.274 184.564 209.636 189.342C205.814 200.809 201.855 212.139 197.76 223.47C196.804 225.927 195.166 228.111 192.163 227.019C189.159 225.927 189.296 223.333 190.252 220.739C191.753 216.508 193.528 212.276 194.756 207.907C195.302 205.723 195.575 202.993 194.893 200.809C190.934 189.478 186.702 178.148 182.47 166.954C181.515 164.497 180.15 162.04 178.512 159.856C175.508 155.897 173.324 155.487 169.229 158.217C162.267 162.859 156.533 168.592 153.121 176.237C152.165 178.421 151.755 181.834 152.711 184.018C155.987 191.663 159.81 199.171 163.632 206.679C164.314 207.907 165.543 208.863 167.454 211.047C167.454 208.18 168 206.542 167.318 205.45C166.089 203.13 164.178 200.945 162.54 198.898C160.902 196.714 159.673 194.393 162.13 192.209C164.451 190.161 167.045 191.253 168.683 193.437C171.823 197.533 175.508 201.628 177.556 206.269C181.515 215.142 184.655 224.425 188.204 233.435C189.842 237.667 191.617 241.899 193.937 245.721C197.623 251.454 202.811 251.318 206.087 245.448C207.588 242.718 208.953 239.714 209.773 236.711C212.366 226.336 215.096 215.962 216.871 205.45C219.055 192.072 220.42 178.421 221.922 164.907C222.195 162.722 221.649 160.538 221.512 158.217C214.687 156.852 208.544 155.624 202.128 154.395C200.353 156.716 198.715 159.173 196.531 162.586ZM126.774 145.658C125.545 149.617 124.726 153.303 123.361 156.852C122.406 159.173 120.631 161.357 117.628 160.811C114.352 160.265 114.215 157.671 114.488 154.941C114.488 154.395 114.079 153.713 113.532 152.484C108.618 151.801 103.567 151.119 98.3798 150.436C95.24 150.027 92.9194 151.392 92.2368 154.532C91.2812 159.173 90.4622 163.814 90.0526 168.592C89.6431 172.824 91.0082 176.373 94.967 179.104C97.9703 181.288 100.291 184.701 102.885 187.431C103.977 188.659 105.205 189.751 106.297 190.844C109.437 186.748 112.031 183.062 114.898 179.65C116.536 177.602 118.856 176.237 121.314 178.285C123.907 180.332 122.952 182.653 121.177 184.837C120.222 186.066 118.993 187.158 118.174 188.523C116.945 190.707 115.853 193.028 114.761 195.212C123.361 188.796 131.415 182.516 140.698 178.148C141.654 177.739 142.746 176.919 143.292 176.1C146.978 170.23 150.663 164.224 154.622 157.671C143.155 158.217 143.701 148.252 140.562 141.427C135.647 142.792 131.142 144.157 126.774 145.658ZM67.8014 73.4443C63.0235 76.7206 61.3854 80.8159 61.5219 85.4573C61.7949 93.3749 59.0647 100.064 53.7408 105.934C44.7311 116.036 35.7214 126.274 26.8482 136.649C23.1624 140.881 19.7496 145.522 16.6099 150.163C13.7431 154.532 14.1527 158.354 17.4289 161.221C24.937 167.773 34.0832 170.64 43.912 172.005C42.8199 163.814 42.8199 155.897 40.4992 148.798C38.7246 143.201 38.3151 139.242 42.9564 135.557C43.2295 135.284 43.0929 134.738 43.366 134.328C47.0518 126.82 50.601 119.312 54.4233 111.804C57.017 106.48 60.1568 101.429 62.7505 96.2416C66.1633 89.2796 67.6649 82.0445 67.8014 73.4443ZM83.6366 111.258C79.4048 123.68 69.7125 131.598 66.0267 144.02C75.3095 143.611 83.6366 144.566 91.5542 140.608C92.5098 140.198 93.7384 139.789 94.694 140.062C100.837 141.29 106.98 142.792 113.123 144.02C114.215 144.293 115.444 144.02 116.672 144.02C117.082 143.474 117.491 142.792 117.764 142.246C101.52 138.014 91.9638 126.547 83.6366 111.258ZM188.613 160.811C190.525 156.716 192.026 153.576 193.801 150.027C181.651 143.065 172.505 133.509 164.724 122.861C159.81 127.503 155.305 131.598 150.936 135.83C150.117 136.649 149.298 138.15 149.298 139.242C148.752 146.478 152.438 149.89 159.4 148.252C171.959 145.112 182.47 146.751 188.613 160.811ZM83.9097 151.528C80.3604 151.801 77.2206 152.211 74.0809 152.348C70.6681 152.484 67.3919 152.348 63.16 152.348C62.7505 157.398 62.0679 162.04 61.9314 166.681C61.7949 173.916 62.614 174.462 69.576 174.599C70.5316 174.599 71.3507 174.462 72.5793 174.326C72.8523 173.507 73.2618 172.688 73.3983 171.869C73.9444 169.684 75.173 168.046 77.4937 168.183C79.9508 168.319 80.7699 170.23 81.0429 172.415C81.1794 174.053 81.589 175.827 81.862 177.466C81.9985 173.097 81.4525 168.865 81.589 164.77C81.9985 160.811 83.0906 156.579 83.9097 151.528ZM199.807 188.932C202.401 183.745 199.398 181.015 195.848 178.421C197.214 181.97 198.579 185.52 199.807 188.932Z" fill="black" fill-opacity="0.12"/>
</svg>
